<?xml version="1.0" encoding="UTF-8"?>
<svg id="Layer_1" data-name="Layer 1" xmlns="http://www.w3.org/2000/svg" version="1.1" xmlns:xlink="http://www.w3.org/1999/xlink" viewBox="0 0 1080 1080">
  <defs>
    <style>
      .cls-1 {
        fill: #000;
      }

      .cls-1, .cls-2, .cls-3, .cls-4, .cls-5 {
        stroke-width: 0px;
      }

      .cls-2 {
        fill: none;
      }

      .cls-3 {
        fill: red;
        fill-rule: evenodd;
      }

      .cls-6 {
        clip-path: url(#clippath);
      }

      .cls-4 {
        fill: #797979;
      }

      .cls-5 {
        fill: #d8d8d8;
      }
    </style>
    <clipPath id="clippath">
      <rect class="cls-2" x="281.3" y="197.4" width="614.4" height="671.9"/>
    </clipPath>
  </defs>
  <path class="cls-1" d="M686,234.5c-5.7,5.1-13.4,15.5-17.3,23.2l-6.8,14-3,370.9-67-90.2c-108.4-146.2-189.3-247.7-230.7-290.2-20.8-21.4-30.1-24.7-67-24.7s-42.3,4.8-60.7,20.8c-25.9,22.9-32.4,47.6-37.2,143.8-1.8,31.6-4.8,89.9-6.8,130.1-4.8,87.5-4.2,292.3.9,310.5,6.3,23.8,33.6,39.9,61,36,18.2-2.7,27.7-7.1,34.2-16.7,6.3-8.3,6.3-12.5,7.1-147.7,1.5-186.7,4.5-304.5,8-302.4,6.3,3.9,79.2,91.4,109,130.7,17.6,22.9,44.4,56.9,59.8,75.6,15.2,18.8,44.1,55.7,63.7,81.9,19.9,26.5,45.5,59.2,56.9,72.9,11.6,13.4,27.4,32.4,34.8,41.7,28,34.5,46.7,45,80.1,45s52.4-9.5,59.5-36c3.9-14.3,8-121.2,12.5-312.3,4.2-181,4.5-234.3,1.8-244.7-6.5-22.3-36.3-41.1-65.5-41.1s-18.5,1.2-27.4,8.9Z"/>
  <path class="cls-4" d="M733,225.1c-5.7,5.1-13.4,15.5-17.3,23.2l-6.8,14-3,370.9-67-90.2c-110.7-149.1-188.7-247.1-230.7-290.2-20.8-21.4-30.1-24.7-67-24.7-37.2.3-61.6,13.7-79.2,43.5-13.7,23.2-15.5,42.9-26.8,279.5-4.8,103.6-3.6,259.6,2.4,282.8,6,23.2,33.3,39.3,60.7,35.4,18.2-2.7,27.7-7.1,34.2-16.7,6-8.3,6.3-12.8,7.1-149.1,1.5-187.5,4.5-303,8-301,6.3,3.9,78.3,90.2,113.7,136.6,21.1,27.4,47.9,61.3,59.5,75.6,11.9,14,38.1,47.6,58.3,74.7,20.2,27.1,46.4,60.4,57.8,74.1,11.6,13.4,27.4,32.4,34.8,41.7,28,34.5,46.7,44.9,80.1,44.9s52.4-9.5,59.5-36c3.9-14.3,8-121.2,12.5-312.3,4.2-181,4.5-234.3,1.8-244.7-6.5-22.3-36.3-41.1-65.5-41.1s-18.5,1.2-27.4,8.9Z"/>
  <path class="cls-5" d="M763.4,225.6c-5.7,5.1-13.4,15.5-17.3,23.2l-6.8,14-3,370.9-67-90.2c-111-149.4-188.7-247.1-230.7-290.2-20.8-21.4-30.1-24.7-67-24.7-37.2.3-61.6,13.7-79.2,43.5-13.7,23.2-15.5,42.9-26.8,279.5-4.8,103.6-3.6,259.6,2.4,282.8,6,23.2,33.3,39.3,60.7,35.4,18.2-2.7,27.7-7.1,34.2-16.7,6-8.3,6.3-12.8,7.1-147.7,1.5-187.8,4.5-304.5,8-302.4,6.3,3.9,79.2,91.4,109,130.7,17.6,22.9,44.4,56.9,59.8,75.6,15.2,18.8,44.1,55.7,63.7,81.9,19.9,26.5,45.5,59.2,56.9,72.9,11.6,13.4,27.4,32.4,34.8,41.7,28,34.5,46.7,45,80.1,45s52.4-9.5,59.5-36c3.9-14.3,8-121.2,12.5-312.3,4.2-181,4.5-234.3,1.8-244.7-6.6-22.3-36.3-41.1-65.5-41.1s-18.5,1.2-27.4,8.9Z"/>
  <g class="cls-6">
    <path class="cls-3" d="M413.1,412.7c-.6,8.2-1.2,18.8-1.6,30.2-.2,4.9-4.3,8.8-9.3,8.6-4.9-.2-8.8-4.3-8.6-9.3.7-21.1,1.5-36.1,2.4-44,.5-5,1.4-8,1.9-9.2,1.8-3.8,4.7-4.8,6.5-5.2,2.1-.4,4.3-.2,6.4,1.1,0,0,.1,0,.2.1,2.9,1.8,19.5,20.2,39.7,44.2,3.2,3.8,2.7,9.4-1.1,12.6-3.8,3.2-9.4,2.7-12.6-1.1-9.2-11-17.5-20.7-24-28.1ZM895.2,288c0,4.9-4,8.9-8.9,8.9s-9-4-9-8.9c0-23.1-.4-34.1-1.4-38.3-2.2-7.2-7.5-13.9-14.4-19.4-11.3-9.1-26.9-15-42.4-15s-14.5.7-21.5,6.7c-5,4.5-11.7,13.7-15.1,20.5l-6,12.1-.5,59.6c0,4.9-4,8.9-9,8.9-4.9,0-8.9-4.1-8.9-9l.5-61.6c0-1.3.3-2.7.9-3.9l6.8-14s0,0,0,0c4.3-8.6,13-20.2,19.3-25.9,0,0,0,0,.1,0,10.8-9.4,15.1-11.1,33.2-11.1,33.2,0,66.6,22.1,74.1,47.5,0,0,0,.2,0,.3,1.2,4.5,2,16.7,2,42.8ZM757.7,376.3c0-4.9,4-8.9,9-8.9,4.9,0,8.9,4.1,8.9,9l-1,123.3c0,4.9-4,8.9-9,8.9-4.9,0-8.9-4.1-8.9-9l1-123.3ZM756.2,561.7c0-4.9,4.1-8.9,9-8.9,4.9,0,8.9,4.1,8.9,9l-.5,61.6c0,3.8-2.5,7.2-6.2,8.4-3.7,1.2-7.6,0-9.9-3.2l-67-90.2c-8.4-11.3-16.5-22.2-24.5-32.9-3-4-2.2-9.6,1.8-12.5,3.9-2.9,9.6-2.1,12.5,1.8,8,10.7,16.2,21.7,24.6,33l51.1,68.8.3-35ZM655.3,461.8c2.9,4,2.2,9.6-1.8,12.5-3.9,2.9-9.6,2.2-12.5-1.8-17.7-23.4-34.3-45.1-49.8-65.3-3-3.9-2.3-9.5,1.6-12.5,3.9-3,9.5-2.3,12.5,1.6,15.6,20.2,32.2,42,49.9,65.4ZM579.9,363.6c3,3.9,2.4,9.5-1.5,12.5-3.9,3.1-9.5,2.4-12.5-1.5-19-24.2-36.1-45.5-51.3-63.9-3.2-3.8-2.6-9.4,1.2-12.6,3.8-3.1,9.4-2.6,12.6,1.2,15.3,18.5,32.5,40,51.6,64.3ZM501.3,267.5c3.2,3.7,2.9,9.4-.9,12.6-3.7,3.2-9.4,2.8-12.6-.9-10.4-11.9-19.5-21.9-27.4-30-18.8-19.3-27.2-22-60.6-22-33.5.3-55.7,12.2-71.5,39.1-5.4,9.1-8.6,17.7-11.5,41.3-.6,4.9-5.1,8.4-9.9,7.8-4.9-.6-8.4-5.1-7.8-10,3.4-27.6,7.5-37.5,13.8-48.2,19.3-32.7,46-47.5,86.8-47.9h0c24.2,0,37.5,1.7,49.2,7.8,7.9,4.1,15.1,10.2,24.2,19.6,8,8.3,17.4,18.5,28,30.7ZM295,353c.4-4.9,4.6-8.6,9.5-8.3s8.6,4.6,8.3,9.5c-1.6,23.5-3.3,53.8-5.3,93.4-.2,4.9-4.5,8.7-9.4,8.5-4.9-.3-8.7-4.5-8.5-9.4,2-39.8,3.7-70.2,5.3-93.8ZM287.3,494c.2-4.9,4.4-8.7,9.3-8.5,4.9.2,8.7,4.4,8.5,9.3-.7,14.6-1.5,30.2-2.2,46.8-.6,12.6-1.1,25.9-1.5,39.7-.2,4.9-4.3,8.8-9.2,8.7-4.9-.2-8.8-4.3-8.7-9.2.4-13.9.9-27.3,1.5-40,.8-16.7,1.6-32.3,2.3-46.9ZM282.6,621.1c0-4.9,4.2-8.9,9.1-8.8,4.9,0,8.8,4.1,8.8,9.1-.4,26.8-.6,54-.5,79.5,0,4.9-4,9-8.9,9-4.9,0-9-4-9-8.9,0-25.6,0-53,.5-79.9ZM282.6,741.3c0-4.9,3.8-9,8.8-9.1,4.9,0,9,3.8,9.1,8.8.7,36.8,2,66,4.1,78.2.8,4.9-2.5,9.5-7.4,10.3-4.9.8-9.5-2.5-10.3-7.4-2.1-12.7-3.6-42.8-4.3-80.8ZM314.2,859.7c-4.3-2.5-5.7-8-3.2-12.2,2.5-4.3,7.9-5.7,12.2-3.2,9.3,5.4,21,8,32.6,6.4,14.8-2.2,22.8-5.2,28.2-12.9,0,0,.2-.2.2-.3,1.3-1.8,2.1-3.2,2.7-7.4.9-6.3,1.4-16.7,1.8-35.8.1-4.9,4.2-8.9,9.1-8.8,4.9.1,8.8,4.2,8.8,9.1-.8,43.3-3.5,47.5-7.9,53.4-7.7,11.2-18.7,17.1-40.2,20.3h0c-15.7,2.2-31.5-1.3-44.1-8.7ZM407.1,744.7c0,4.9-4.1,8.9-9,8.8-4.9,0-8.9-4.1-8.8-9,0-14.2.2-30.5.3-49.4.2-17.4.3-34.2.4-50.4,0-4.9,4.1-8.9,9-8.8,4.9,0,8.9,4.1,8.8,9-.2,16.1-.3,32.9-.4,50.3-.1,18.9-.2,35.3-.3,49.4ZM408.4,594.2c0,4.9-4.1,8.9-9,8.8-4.9,0-8.9-4.1-8.8-9,.5-38.5,1.1-72.4,1.7-100.8.1-4.9,4.2-8.8,9.1-8.7,4.9.1,8.8,4.2,8.7,9.1-.6,28.3-1.2,62.1-1.7,100.6ZM473.4,484.7c-3.1-3.8-2.5-9.5,1.3-12.6,3.8-3.1,9.5-2.5,12.6,1.3,13.7,16.8,26.4,32.9,35.3,44.6,17.5,22.8,44.2,56.7,59.6,75.3,0,0,0,0,0,0,15.2,18.8,44.2,55.8,63.9,82.1,19.8,26.3,45.3,58.8,56.5,72.5,11.6,13.5,27.5,32.6,34.9,41.8,14.6,18,26.3,29.1,39.4,35.3,4.4,2.1,6.4,7.4,4.3,11.9-2.1,4.4-7.4,6.4-11.9,4.3-15.1-7.1-28.9-19.5-45.7-40.2h0c-7.4-9.2-23.1-28.1-34.6-41.5,0,0,0,0-.1-.2-11.4-13.8-37.1-46.6-57.1-73.3-19.6-26.1-48.3-62.9-63.5-81.6-15.5-18.8-42.4-52.8-60-75.8,0,0,0,0,0,0-8.8-11.6-21.4-27.5-34.9-44.1ZM831.2,848.1c-4.9.7-9.4-2.7-10.1-7.6-.7-4.9,2.7-9.4,7.6-10.1,9.6-1.3,16.8-3.9,22.1-8.5,5.2-4.6,8.5-11.1,10.8-19.8,1.4-5,2.6-21.8,4-49.9.2-4.9,4.4-8.7,9.4-8.5,4.9.3,8.7,4.5,8.5,9.4-1.6,30.2-3.2,48.3-4.6,53.6-3.4,12.7-8.7,21.9-16.3,28.6-7.6,6.6-17.7,10.9-31.3,12.8ZM885.8,700.7c-.2,4.9-4.3,8.8-9.3,8.6-4.9-.2-8.8-4.3-8.6-9.3,1.1-28.8,2.2-63.5,3.3-103.8.2-4.9,4.3-8.8,9.2-8.7,4.9.1,8.8,4.2,8.7,9.2-1.1,40.3-2.2,75-3.3,104ZM890.5,544.3c-.1,4.9-4.2,8.8-9.2,8.7-4.9-.1-8.8-4.2-8.7-9.2.4-16.6.8-33.8,1.3-51.9.3-14.3.6-27.9.9-40.7.1-4.9,4.2-8.8,9.1-8.7,4.9,0,8.8,4.2,8.8,9.1-.3,12.8-.6,26.3-.9,40.7-.4,18.1-.8,35.4-1.3,51.9ZM893.5,410.6c0,4.9-4.2,8.8-9.1,8.7-4.9,0-8.8-4.2-8.8-9.1.7-33,1.2-59.8,1.4-81.3,0-4.9,4.1-8.9,9.1-8.8,4.9,0,8.9,4.1,8.8,9-.3,21.6-.7,48.3-1.4,81.4Z"/>
  </g>
</svg>